# xmcd CD database file
#
# Track frame offsets:
#	150
#	12346
#	25407
#	37955
#	50819
#	62017
#	75426
#	87960
#	101717
#	114171
#	125169
#	138637
#	152784
#	166067
#
# Disc length: 2394 seconds
#
# Revision: 0
# Processed by: cddbd v1.5.1PL0 Copyright (c) Steve Scherf et al.
# Submitted via: CDex 1.51
#
DISCID=b309580e
DTITLE=La Sonora Matancera - Con Celia Cruz
DYEAR=1900
DGENRE=Salsa
TTITLE0=Chango ta veni
TTITLE1=Plegaria a Laroye
TTITLE2=Comadde
TTITLE3=Yembe laroco
TTITLE4=Mulense
TTITLE5=Eleggua quiere tambo
TTITLE6=Imoye
TTITLE7=Chocoune
TTITLE8=Oyeme aggayu
TTITLE9=Taina
TTITLE10=En el bajio
TTITLE11=Tu voz
TTITLE12=Saoco
TTITLE13=Abre la puerta querida
EXTD=
EXTT0=
EXTT1=
EXTT2=
EXTT3=
EXTT4=
EXTT5=
EXTT6=
EXTT7=
EXTT8=
EXTT9=
EXTT10=
EXTT11=
EXTT12=
EXTT13=
PLAYORDER=
